PathFileType	4	(X/Y/Z)	Walk7.trc
DataRate	CameraRate	NumFrames	NumMarkers	Units	OrigDataRate	OrigDataStartFrame	OrigNumFrames
200.000000	200.000000	4	59	mm	200.000000	547	787
Frame#	Times		LCAR		LUA1		LACR1		RTH3		RCAR		RUA1		RACR1		LTB2		RTH1		RFHD		RWRR		RTH2		T10		RPSI		RElbowM		STRN		RBack		LMT5		LLFC		C7		RASI		LTB1		RTH4		LMT1		LPSI		LTB3		LFHD		LTB4		LToe		LLMAL		LTH3		LASI		LElbowM		LTH4		CLAV		RFA1		RElbow		RBHD		LTH1		RWRU		RLFC		LCAL		LFA1		RTB2		LWRR		LTH2		LBHD		LElbow		RTB1		RMT5		RTB3		LWRU		RTB4		RMT1		RToe		RMMAL		RLMAL		RCAL		LMMAL
			X1	Y1	Z1	X2	Y2	Z2	X3	Y3	Z3	X4	Y4	Z4	X5	Y5	Z5	X6	Y6	Z6	X7	Y7	Z7	X8	Y8	Z8	X9	Y9	Z9	X10	Y10	Z10	X11	Y11	Z11	X12	Y12	Z12	X13	Y13	Z13	X14	Y14	Z14	X15	Y15	Z15	X16	Y16	Z16	X17	Y17	Z17	X18	Y18	Z18	X19	Y19	Z19	X20	Y20	Z20	X21	Y21	Z21	X22	Y22	Z22	X23	Y23	Z23	X24	Y24	Z24	X25	Y25	Z25	X26	Y26	Z26	X27	Y27	Z27	X28	Y28	Z28	X29	Y29	Z29	X30	Y30	Z30	X31	Y31	Z31	X32	Y32	Z32	X33	Y33	Z33	X34	Y34	Z34	X35	Y35	Z35	X36	Y36	Z36	X37	Y37	Z37	X38	Y38	Z38	X39	Y39	Z39	X40	Y40	Z40	X41	Y41	Z41	X42	Y42	Z42	X43	Y43	Z43	X44	Y44	Z44	X45	Y45	Z45	X46	Y46	Z46	X47	Y47	Z47	X48	Y48	Z48	X49	Y49	Z49	X50	Y50	Z50	X51	Y51	Z51	X52	Y52	Z52	X53	Y53	Z53	X54	Y54	Z54	X55	Y55	Z55	X56	Y56	Z56	X57	Y57	Z57	X58	Y58	Z58	X59	Y59	Z59

547	2.735	80.357	841.92	-296.22	-108.69	1200.8	-267.36	-134.78	1373.5	-169.18	-20.304	589.43	179.89	-215.83	771.78	274.54	-186.86	1195	235.83	-145	1374.5	140.32	-230.66	251.2	-86.821	-89.264	742.15	224.71	-17.205	1592.2	14.963	-222.82	827.21	226.89	-2.4353	691.47	198.24	-293.58	1153.6	-16.467	-290.36	968.58	48.744	-273.87	1059.5	168.03	-22.45	1230.4	-5.5693	-272.3	1325.1	90.568	-204.66	23.398	-63.285	-211.37	477.59	-114.49	-214.1	1418.6	-11.431	-47.409	971.87	144.04	-185.06	331.88	-33.508	-55.759	664.29	200.86	-173.05	30.742	16.253	-293.09	968.78	-41.968	-228.85	164.75	-29.632	-32.367	1588.8	-78.649	-207.65	248.22	-30.045	-104.25	24.373	-10.473	-287.97	62.894	-48.76	-192.94	598.04	-150.54	-44.113	955.07	-148.93	-153.94	1035.7	-243.77	-178.31	678.52	-179.87	-78.234	1336.1	-15.81	-272.17	937.85	276.48	-252.05	1083.3	261.3	-168.42	1549.4	57.004	-163.43	752.74	-217.66	-269.33	827.9	279.9	10.112	513.54	157.67	-352.08	37.587	-12.696	-58.021	948.12	-317.41	21.427	276.83	148	44.792	876.26	-256.42	-121.66	673.49	-166.25	-185.65	1537.4	-83.437	-116	1075.7	-307.72	65.17	358.47	97.852	70.111	38.515	140.44	38.531	187.95	95.409	8.3769	850.32	-314.5	51.825	271.9	93.232	109.23	51.991	76.967	157.8	66.436	116.01	14.981	84.602	35.896	-12.251	75.745	114.79	-68.603	37.013	66.93	-271.65	67.658	34.731
548	2.74	91.266	843.77	-294.99	-101.8	1200.5	-267.24	-129.29	1372.7	-169.18	-14.542	588.92	179.04	-212.75	771.18	274.54	-182.1	1194.5	235.79	-139.35	1373.8	140.3	-229.59	251.13	-86.623	-82.518	741.41	224.9	-11.135	1591	14.978	-219.33	826.7	226.54	3.989	690.67	197.34	-287.89	1152.9	-16.429	-284.3	967.77	49.166	-269.27	1059.2	167.61	-16.579	1229.5	-5.8985	-266.62	1324.4	90.464	-204.64	23.407	-63.243	-209.12	477.44	-114.37	-208.45	1417.7	-11.534	-41.36	971.27	144.33	-183.28	331.57	-33.608	-49.219	663.55	200.62	-172.99	30.743	16.223	-287.55	968.09	-41.211	-228.01	164.77	-29.677	-26.294	1587.9	-78.66	-206.32	248.12	-30.262	-104.08	24.248	-10.622	-287.85	63.094	-48.608	-189.66	597.99	-150.34	-39.082	953.94	-149.11	-145.73	1034.9	-244.01	-174.73	678.24	-180.1	-72.319	1335.3	-16.005	-268.39	937.49	275.85	-247.57	1082.9	261.08	-162.44	1548.8	57.135	-159.43	752.25	-217.74	-266.28	827.43	279.03	15.259	512.71	156.39	-351.93	38.003	-12.479	-48.421	948.28	-317.15	33.442	276.14	146.99	54.994	878.09	-255.48	-118.06	672.35	-165.87	-179.57	1537	-83.407	-108.13	1075.3	-307.67	74.488	359.15	97.068	90.35	38.945	139.52	53.981	187.77	94.67	19.387	851.63	-313.59	64.419	272.28	92.54	129.46	53.988	76.525	177.27	69.9	115.86	34.36	83.857	35.391	6.9562	73.968	114.07	-47.769	33.481	65.8	-271.14	67.878	34.819
549	2.745	102.08	845.71	-293.88	-94.969	1200.1	-267.08	-123.5	1372	-169.17	-8.6963	588.17	178.37	-209.82	770.53	274.1	-177.45	1194	235.78	-133.58	1373	140.27	-228.59	251.09	-86.436	-75.602	740.92	224.88	-4.6964	1590	14.977	-215.62	826.06	226.36	10.362	689.6	196.36	-282.24	1152.1	-16.032	-278.64	967.09	49.739	-264.33	1058.8	166.96	-10.923	1228.8	-6.2283	-260.65	1323.6	90.44	-204.65	23.387	-63.198	-206.5	477.31	-114.29	-202.72	1417	-11.401	-35.663	970.39	144.78	-181.57	331.22	-33.752	-43.234	662.72	200.27	-172.9	30.771	16.243	-282.07	967.49	-40.602	-227.2	164.84	-29.772	-20.054	1586.9	-78.683	-205.08	248.15	-30.291	-103.93	24.154	-10.74	-287.74	63.319	-48.45	-186.31	597.81	-150.09	-33.286	953.23	-149.09	-137.51	1034	-243.88	-170.74	677.87	-179.98	-66.978	1334.6	-16.069	-264.45	937.15	275.4	-243.22	1082.5	260.64	-156.37	1548.3	57.132	-155.04	751.87	-217.8	-263.08	827.01	278.49	20.45	511.76	155.3	-351.79	38.482	-12.105	-38.986	948.61	-316.52	45.268	275.6	146.3	65.257	880.06	-254.46	-114.26	671.68	-165.56	-173.52	1536.5	-83.431	-100.02	1075	-307.81	83.657	359.95	96.392	110.34	39.69	138.65	69.113	187.87	94.001	29.928	852.64	-312.63	76.645	272.75	91.773	149.23	56.641	76.184	196.41	73.697	115.59	53.287	83.202	34.797	26.028	72.432	113.24	-27.35	30.134	65.075	-270.6	68.089	34.934
550	2.75	112.9	847.86	-292.74	-87.893	1199.8	-267.14	-117.98	1371.2	-169.12	-2.9337	587.13	177.73	-207.08	769.49	273.51	-172.5	1193.3	235.67	-127.68	1372.2	140.25	-227.52	251.05	-86.321	-68.831	740.22	224.76	1.3555	1588.8	15.113	-211.79	825.41	225.98	16.689	688.58	195.37	-276.57	1151.4	-15.865	-272.66	966.13	50.177	-259.65	1058.5	166.71	-4.9976	1228.1	-6.9286	-255.42	1323	90.527	-204.65	23.398	-63.134	-203.87	477.1	-114.3	-197.19	1416.2	-11.567	-29.702	969.78	145.22	-179.86	330.89	-33.81	-36.953	661.89	200.04	-172.84	30.781	16.244	-276.56	966.69	-40.184	-226.42	164.93	-29.796	-14.049	1586	-78.687	-203.89	247.99	-30.203	-103.78	24.069	-10.946	-287.52	63.649	-48.195	-182.76	597.62	-150.04	-26.887	952.56	-149.09	-129.33	1032.9	-243.78	-167.01	677.44	-180.02	-61.553	1333.6	-16.345	-260.53	936.81	275.04	-238.58	1082	260.24	-150.48	1547.8	56.937	-150.65	751.25	-217.9	-259.75	826.63	277.89	24.679	511.08	154.7	-351.7	38.943	-11.554	-29.59	948.84	-316.11	56.883	275.1	145.52	75.639	881.88	-253.46	-110.47	671.07	-165.65	-167.69	1536	-83.456	-91.89	1074.6	-307.8	92.636	360.75	95.709	130.3	41.382	137.94	83.909	188.39	93.401	40.551	853.65	-311.54	88.686	273.42	91.113	168.69	59.639	75.783	215.26	78.17	115.03	72.094	82.938	34.049	44.751	71.017	112.01	-7.0266	27.361	64.254	-270.14	68.32	35.078
